<?xml version="1.0" encoding="UTF-8" standalone="no"?><!DOCTYPE svg PUBLIC "-//W3C//DTD SVG 1.1//EN" "http://www.w3.org/Graphics/SVG/1.1/DTD/svg11.dtd"><svg width="100%" height="100%" viewBox="0 0 2481 3508" version="1.1" xmlns="http://www.w3.org/2000/svg" xmlns:xlink="http://www.w3.org/1999/xlink" xml:space="preserve" xmlns:serif="http://www.serif.com/" style="fill-rule:evenodd;clip-rule:evenodd;stroke-linecap:round;stroke-linejoin:round;stroke-miterlimit:1.5;"><circle cx="1240.157" cy="1753.937" r="1037.23" style="fill:#00408b;"/><clipPath id="_clip1"><circle cx="1240.157" cy="1753.937" r="1037.23"/></clipPath><g clip-path="url(#_clip1)"><g><g id="Buruj" opacity="0.53"><path d="M272.597,2007.093c4.195,6.441 2.403,15.055 -3.998,19.224c-6.401,4.169 -15.004,2.324 -19.199,-4.117c-4.195,-6.441 -2.403,-15.055 3.998,-19.224c6.401,-4.169 15.004,-2.324 19.199,4.117Z" style="fill:#fff;stroke:#fff;stroke-width:4.17px;"/><path d="M431.425,2145.152c4.195,6.441 2.403,15.055 -3.998,19.224c-6.401,4.169 -15.004,2.324 -19.199,-4.117c-4.195,-6.441 -2.403,-15.055 3.998,-19.224c6.401,-4.169 15.004,-2.324 19.199,4.117Z" style="fill:#fff;stroke:#fff;stroke-width:4.17px;"/><path d="M618.887,2124.858c4.195,6.441 2.403,15.055 -3.998,19.224c-6.401,4.169 -15.004,2.324 -19.199,-4.117c-4.195,-6.441 -2.403,-15.055 3.998,-19.224c6.401,-4.169 15.004,-2.324 19.199,4.117Z" style="fill:#fff;stroke:#fff;stroke-width:4.17px;"/><path d="M683.848,1969.086c4.195,6.441 2.403,15.055 -3.998,19.224c-6.401,4.169 -15.004,2.324 -19.199,-4.117c-4.195,-6.441 -2.403,-15.055 3.998,-19.224c6.401,-4.169 15.004,-2.324 19.199,4.117Z" style="fill:#fff;stroke:#fff;stroke-width:4.17px;"/><path d="M902.99,2265.699c4.195,6.441 2.403,15.055 -3.998,19.224c-6.401,4.169 -15.004,2.324 -19.199,-4.117c-4.195,-6.441 -2.403,-15.055 3.998,-19.224c6.401,-4.169 15.004,-2.324 19.199,4.117Z" style="fill:#fff;stroke:#fff;stroke-width:4.17px;"/><path d="M801.576,2385.526c4.195,6.441 2.403,15.055 -3.998,19.224c-6.401,4.169 -15.004,2.324 -19.199,-4.117c-4.195,-6.441 -2.403,-15.055 3.998,-19.224c6.401,-4.169 15.004,-2.324 19.199,4.117Z" style="fill:#fff;stroke:#fff;stroke-width:4.17px;"/><path d="M891.346,2355.486c4.195,6.441 2.403,15.055 -3.998,19.224c-6.401,4.169 -15.004,2.324 -19.199,-4.117c-4.195,-6.441 -2.403,-15.055 3.998,-19.224c6.401,-4.169 15.004,-2.324 19.199,4.117Z" style="fill:#fff;stroke:#fff;stroke-width:4.17px;"/><path d="M554.6,2410.737c4.195,6.441 2.403,15.055 -3.998,19.224c-6.401,4.169 -15.004,2.324 -19.199,-4.117c-4.195,-6.441 -2.403,-15.055 3.998,-19.224c6.401,-4.169 15.004,-2.324 19.199,4.117Z" style="fill:#fff;stroke:#fff;stroke-width:4.17px;"/><path d="M784.338,2551.012c4.195,6.441 2.403,15.055 -3.998,19.224c-6.401,4.169 -15.004,2.324 -19.199,-4.117c-4.195,-6.441 -2.403,-15.055 3.998,-19.224c6.401,-4.169 15.004,-2.324 19.199,4.117Z" style="fill:#fff;stroke:#fff;stroke-width:4.17px;"/><path d="M364.378,2424.176c4.195,6.441 2.403,15.055 -3.998,19.224c-6.401,4.169 -15.004,2.324 -19.199,-4.117c-4.195,-6.441 -2.403,-15.055 3.998,-19.224c6.401,-4.169 15.004,-2.324 19.199,4.117Z" style="fill:#fff;stroke:#fff;stroke-width:4.17px;"/><path d="M485.74,2751.978c4.195,6.441 2.403,15.055 -3.998,19.224c-6.401,4.169 -15.004,2.324 -19.199,-4.117c-4.195,-6.441 -2.403,-15.055 3.998,-19.224c6.401,-4.169 15.004,-2.324 19.199,4.117Z" style="fill:#fff;stroke:#fff;stroke-width:4.17px;"/><path d="M191.646,2945.856c4.195,6.441 2.403,15.055 -3.998,19.224c-6.401,4.169 -15.004,2.324 -19.199,-4.117c-4.195,-6.441 -2.403,-15.055 3.998,-19.224c6.401,-4.169 15.004,-2.324 19.199,4.117Z" style="fill:#fff;stroke:#fff;stroke-width:4.17px;"/><path d="M410.958,2147.446l-151.154,-132.769" style="fill:none;stroke:#fff;stroke-width:4.17px;"/><path d="M883.011,2269.065l-202.154,-291.977" style="fill:none;stroke:#fff;stroke-width:4.17px;"/><path id="Line" d="M607.288,2132.411l-179.917,16.677" style="fill:none;stroke:#fff;stroke-width:4.17px;"/><path id="Line1" serif:id="Line" d="M534.63,2420.852l-180.599,5.692" style="fill:none;stroke:#fff;stroke-width:4.17px;"/><path id="Line2" serif:id="Line" d="M766.164,2570.776l-286.797,187.543" style="fill:none;stroke:#fff;stroke-width:4.17px;"/><path id="Line3" serif:id="Line" d="M464.848,2764.139l-286.797,187.543" style="fill:none;stroke:#fff;stroke-width:4.17px;"/><path d="M888.234,2268.683l-7.427,94.181" style="fill:none;stroke:#fff;stroke-width:4.17px;"/><path d="M880.807,2362.864l-91.638,22.971" style="fill:none;stroke:#fff;stroke-width:4.17px;"/><path d="M785.429,2407.1l-12.508,140.58" style="fill:none;stroke:#fff;stroke-width:4.17px;"/><path d="M764.002,2557.74l-214.821,-129.908" style="fill:none;stroke:#fff;stroke-width:4.17px;"/><path d="M676.435,1971.172l-74.73,164.511" style="fill:none;stroke:#fff;stroke-width:4.17px;"/></g><g id="Buruj1" serif:id="Buruj" opacity="0.5"><path d="M535.637,1931.947c-2.738,-5.957 -0.154,-13.003 5.766,-15.724c5.92,-2.721 12.95,-0.094 15.688,5.863c2.738,5.957 0.154,13.003 -5.766,15.724c-5.92,2.721 -12.95,0.094 -15.688,-5.863Z" style="fill:#fff;stroke:#fff;stroke-width:4.17px;"/><path d="M418.799,1795.688c-2.738,-5.957 -0.154,-13.003 5.766,-15.724c5.92,-2.721 12.95,-0.094 15.688,5.863c2.738,5.957 0.154,13.003 -5.766,15.724c-5.92,2.721 -12.95,0.094 -15.688,-5.863Z" style="fill:#fff;stroke:#fff;stroke-width:4.17px;"/><path d="M258.094,1789.483c-2.738,-5.957 -0.154,-13.003 5.766,-15.724c5.92,-2.721 12.95,-0.094 15.688,5.863c2.738,5.957 0.154,13.003 -5.766,15.724c-5.92,2.721 -12.95,0.094 -15.688,-5.863Z" style="fill:#fff;stroke:#fff;stroke-width:4.17px;"/><path d="M183.894,1912.838c-2.738,-5.957 -0.154,-13.003 5.766,-15.724c5.92,-2.721 12.95,-0.094 15.688,5.863c2.738,5.957 0.154,13.003 -5.766,15.724c-5.92,2.721 -12.95,0.094 -15.688,-5.863Z" style="fill:#fff;stroke:#fff;stroke-width:4.17px;"/><path d="M35.895,1635.285c-2.738,-5.957 -0.154,-13.003 5.766,-15.724c5.92,-2.721 12.95,-0.094 15.688,5.863c2.738,5.957 0.154,13.003 -5.766,15.724c-5.92,2.721 -12.95,0.094 -15.688,-5.863Z" style="fill:#fff;stroke:#fff;stroke-width:4.17px;"/><path d="M136.381,1546.796c-2.738,-5.957 -0.154,-13.003 5.766,-15.724c5.92,-2.721 12.95,-0.094 15.688,5.863c2.738,5.957 0.154,13.003 -5.766,15.724c-5.92,2.721 -12.95,0.094 -15.688,-5.863Z" style="fill:#fff;stroke:#fff;stroke-width:4.17px;"/><path d="M56.895,1560.972c-2.738,-5.957 -0.154,-13.003 5.766,-15.724c5.92,-2.721 12.95,-0.094 15.688,5.863c2.738,5.957 0.154,13.003 -5.766,15.724c-5.92,2.721 -12.95,0.094 -15.688,-5.863Z" style="fill:#fff;stroke:#fff;stroke-width:4.17px;"/><path d="M347.916,1556.258c-2.738,-5.957 -0.154,-13.003 5.766,-15.724c5.92,-2.721 12.95,-0.094 15.688,5.863c2.738,5.957 0.154,13.003 -5.766,15.724c-5.92,2.721 -12.95,0.094 -15.688,-5.863Z" style="fill:#fff;stroke:#fff;stroke-width:4.17px;"/><path d="M171.521,1409.304c-2.738,-5.957 -0.154,-13.003 5.766,-15.724c5.92,-2.721 12.95,-0.094 15.688,5.863c2.738,5.957 0.154,13.003 -5.766,15.724c-5.92,2.721 -12.95,0.094 -15.688,-5.863Z" style="fill:#fff;stroke:#fff;stroke-width:4.17px;"/><path d="M510.097,1568.592c-2.738,-5.957 -0.154,-13.003 5.766,-15.724c5.92,-2.721 12.95,-0.094 15.688,5.863c2.738,5.957 0.154,13.003 -5.766,15.724c-5.92,2.721 -12.95,0.094 -15.688,-5.863Z" style="fill:#fff;stroke:#fff;stroke-width:4.17px;"/><path d="M448.487,1276.89c-2.738,-5.957 -0.154,-13.003 5.766,-15.724c5.92,-2.721 12.95,-0.094 15.688,5.863c2.738,5.957 0.154,13.003 -5.766,15.724c-5.92,2.721 -12.95,0.094 -15.688,-5.863Z" style="fill:#fff;stroke:#fff;stroke-width:4.17px;"/><path d="M720.771,1149.896c-2.738,-5.957 -0.154,-13.003 5.766,-15.724c5.92,-2.721 12.95,-0.094 15.688,5.863c2.738,5.957 0.154,13.003 -5.766,15.724c-5.92,2.721 -12.95,0.094 -15.688,-5.863Z" style="fill:#fff;stroke:#fff;stroke-width:4.17px;"/><path d="M436.355,1796.299l111.02,130.841" style="fill:none;stroke:#fff;stroke-width:4.17px;"/><path d="M53.173,1634.931l134.241,271.527" style="fill:none;stroke:#fff;stroke-width:4.17px;"/><path id="Line4" serif:id="Line" d="M268.821,1784.552l153.889,8.319" style="fill:none;stroke:#fff;stroke-width:4.17px;"/><path id="Line5" serif:id="Line" d="M366.026,1550.209l153.097,17.672" style="fill:none;stroke:#fff;stroke-width:4.17px;"/><path id="Line6" serif:id="Line" d="M189.315,1394.89l265.338,-122.557" style="fill:none;stroke:#fff;stroke-width:4.17px;"/><path id="Line7" serif:id="Line" d="M467.629,1269.229l265.338,-122.557" style="fill:none;stroke:#fff;stroke-width:4.17px;"/><path d="M48.719,1634.603l17.987,-78.545" style="fill:none;stroke:#fff;stroke-width:4.17px;"/><path d="M66.706,1556.058l80.182,-7.979" style="fill:none;stroke:#fff;stroke-width:4.17px;"/><path d="M152.691,1530.601l28.049,-117.065" style="fill:none;stroke:#fff;stroke-width:4.17px;"/><path d="M189.518,1406.159l165.099,136.35" style="fill:none;stroke:#fff;stroke-width:4.17px;"/><path d="M190.409,1912l83.53,-129.514" style="fill:none;stroke:#fff;stroke-width:4.17px;"/></g><g id="Buruj2" serif:id="Buruj" opacity="0.5"><path d="M1879.993,1573.624c2.902,-5.428 0.878,-12.176 -4.516,-15.06c-5.394,-2.884 -12.13,-0.819 -15.032,4.609c-2.902,5.428 -0.878,12.176 4.516,15.06c5.394,2.884 12.13,0.819 15.032,-4.609Z" style="fill:#fff;stroke:#fff;stroke-width:4.17px;"/><path d="M1997.169,1452.529c2.902,-5.428 0.878,-12.176 -4.516,-15.06c-5.394,-2.884 -12.13,-0.819 -15.032,4.609c-2.902,5.428 -0.878,12.176 4.516,15.06c5.394,2.884 12.13,0.819 15.032,-4.609Z" style="fill:#fff;stroke:#fff;stroke-width:4.17px;"/><path d="M2148.114,1455.783c2.902,-5.428 0.878,-12.176 -4.516,-15.06c-5.394,-2.884 -12.13,-0.819 -15.032,4.609c-2.902,5.428 -0.878,12.176 4.516,15.06c5.394,2.884 12.13,0.819 15.032,-4.609Z" style="fill:#fff;stroke:#fff;stroke-width:4.17px;"/><path d="M2210.685,1575.564c2.902,-5.428 0.878,-12.176 -4.516,-15.06c-5.394,-2.884 -12.13,-0.819 -15.032,4.609c-2.902,5.428 -0.878,12.176 4.516,15.06c5.394,2.884 12.13,0.819 15.032,-4.609Z" style="fill:#fff;stroke:#fff;stroke-width:4.17px;"/><path d="M2365.035,1323.824c2.902,-5.428 0.878,-12.176 -4.516,-15.06c-5.394,-2.884 -12.13,-0.819 -15.032,4.609c-2.902,5.428 -0.878,12.176 4.516,15.06c5.394,2.884 12.13,0.819 15.032,-4.609Z" style="fill:#fff;stroke:#fff;stroke-width:4.17px;"/><path d="M2275.864,1235.231c2.902,-5.428 0.878,-12.176 -4.516,-15.06c-5.394,-2.884 -12.13,-0.819 -15.032,4.609c-2.902,5.428 -0.878,12.176 4.516,15.06c5.394,2.884 12.13,0.819 15.032,-4.609Z" style="fill:#fff;stroke:#fff;stroke-width:4.17px;"/><path d="M2349.55,1253.001c2.902,-5.428 0.878,-12.176 -4.516,-15.06c-5.394,-2.884 -12.13,-0.819 -15.032,4.609c-2.902,5.428 -0.878,12.176 4.516,15.06c5.394,2.884 12.13,0.819 15.032,-4.609Z" style="fill:#fff;stroke:#fff;stroke-width:4.17px;"/><path d="M2077.103,1232.162c2.902,-5.428 0.878,-12.176 -4.516,-15.06c-5.394,-2.884 -12.13,-0.819 -15.032,4.609c-2.902,5.428 -0.878,12.176 4.516,15.06c5.394,2.884 12.13,0.819 15.032,-4.609Z" style="fill:#fff;stroke:#fff;stroke-width:4.17px;"/><path d="M2250.694,1104.406c2.902,-5.428 0.878,-12.176 -4.516,-15.06c-5.394,-2.884 -12.13,-0.819 -15.032,4.609c-2.902,5.428 -0.878,12.176 4.516,15.06c5.394,2.884 12.13,0.819 15.032,-4.609Z" style="fill:#fff;stroke:#fff;stroke-width:4.17px;"/><path d="M1924.429,1234.568c2.902,-5.428 0.878,-12.176 -4.516,-15.06c-5.394,-2.884 -12.13,-0.819 -15.032,4.609c-2.902,5.428 -0.878,12.176 4.516,15.06c5.394,2.884 12.13,0.819 15.032,-4.609Z" style="fill:#fff;stroke:#fff;stroke-width:4.17px;"/><path d="M1998.624,964.694c2.902,-5.428 0.878,-12.176 -4.516,-15.06c-5.394,-2.884 -12.13,-0.819 -15.032,4.609c-2.902,5.428 -0.878,12.176 4.516,15.06c5.394,2.884 12.13,0.819 15.032,-4.609Z" style="fill:#fff;stroke:#fff;stroke-width:4.17px;"/><path d="M1750.635,830.325c2.902,-5.428 0.878,-12.176 -4.516,-15.06c-5.394,-2.884 -12.13,-0.819 -15.032,4.609c-2.902,5.428 -0.878,12.176 4.516,15.06c5.394,2.884 12.13,0.819 15.032,-4.609Z" style="fill:#fff;stroke:#fff;stroke-width:4.17px;"/><path d="M1980.683,1452.112l-111.419,116.345" style="fill:none;stroke:#fff;stroke-width:4.17px;"/><path d="M2348.865,1322.517l-141.117,246.87" style="fill:none;stroke:#fff;stroke-width:4.17px;"/><path id="Line8" serif:id="Line" d="M2138.34,1450.557l-144.677,-0.888" style="fill:none;stroke:#fff;stroke-width:4.17px;"/><path id="Line9" serif:id="Line" d="M2060.474,1225.472l-144.463,7.921" style="fill:none;stroke:#fff;stroke-width:4.17px;"/><path id="Line10" serif:id="Line" d="M2234.832,1089.895l-241.73,-129.819" style="fill:none;stroke:#fff;stroke-width:4.17px;"/><path id="Line11" serif:id="Line" d="M1981.118,956.435l-241.73,-129.819" style="fill:none;stroke:#fff;stroke-width:4.17px;"/><path d="M2353.057,1322.461l-12.424,-74.619" style="fill:none;stroke:#fff;stroke-width:4.17px;"/><path d="M2340.633,1247.843l-74.688,-12.001" style="fill:none;stroke:#fff;stroke-width:4.17px;"/><path d="M2261.495,1219.135l-19.679,-111.283" style="fill:none;stroke:#fff;stroke-width:4.17px;"/><path d="M2234.006,1100.443l-162.406,118.456" style="fill:none;stroke:#fff;stroke-width:4.17px;"/><path d="M2204.628,1574.412l-70.967,-126.079" style="fill:none;stroke:#fff;stroke-width:4.17px;"/></g><g id="Buruj3" serif:id="Buruj" opacity="0.5"><path d="M1021.34,1007.433c-2.334,-5.695 0.367,-12.202 6.027,-14.521c5.66,-2.319 12.15,0.421 14.484,6.116c2.334,5.695 -0.367,12.202 -6.027,14.521c-5.66,2.319 -12.15,-0.421 -14.484,-6.116Z" style="fill:#fff;stroke:#fff;stroke-width:4.17px;"/><path d="M917.108,875.032c-2.334,-5.695 0.367,-12.202 6.027,-14.521c5.66,-2.319 12.15,0.421 14.484,6.116c2.334,5.695 -0.367,12.202 -6.027,14.521c-5.66,2.319 -12.15,-0.421 -14.484,-6.116Z" style="fill:#fff;stroke:#fff;stroke-width:4.17px;"/><path d="M766.617,862.893c-2.334,-5.695 0.367,-12.202 6.027,-14.521c5.66,-2.319 12.15,0.421 14.484,6.116c2.334,5.695 -0.367,12.202 -6.027,14.521c-5.66,2.319 -12.15,-0.421 -14.484,-6.116Z" style="fill:#fff;stroke:#fff;stroke-width:4.17px;"/><path d="M692.17,975.677c-2.334,-5.695 0.367,-12.202 6.027,-14.521c5.66,-2.319 12.15,0.421 14.484,6.116c2.334,5.695 -0.367,12.202 -6.027,14.521c-5.66,2.319 -12.15,-0.421 -14.484,-6.116Z" style="fill:#fff;stroke:#fff;stroke-width:4.17px;"/><path d="M564.266,709.523c-2.334,-5.695 0.367,-12.202 6.027,-14.521c5.66,-2.319 12.15,0.421 14.484,6.116c2.334,5.695 -0.367,12.202 -6.027,14.521c-5.66,2.319 -12.15,-0.421 -14.484,-6.116Z" style="fill:#fff;stroke:#fff;stroke-width:4.17px;"/><path d="M661.998,630.475c-2.334,-5.695 0.367,-12.202 6.027,-14.521c5.66,-2.319 12.15,0.421 14.484,6.116c2.334,5.695 -0.367,12.202 -6.027,14.521c-5.66,2.319 -12.15,-0.421 -14.484,-6.116Z" style="fill:#fff;stroke:#fff;stroke-width:4.17px;"/><path d="M586.885,640.646c-2.334,-5.695 0.367,-12.202 6.027,-14.521c5.66,-2.319 12.15,0.421 14.484,6.116c2.334,5.695 -0.367,12.202 -6.027,14.521c-5.66,2.319 -12.15,-0.421 -14.484,-6.116Z" style="fill:#fff;stroke:#fff;stroke-width:4.17px;"/><path d="M860.038,647.669c-2.334,-5.695 0.367,-12.202 6.027,-14.521c5.66,-2.319 12.15,0.421 14.484,6.116c2.334,5.695 -0.367,12.202 -6.027,14.521c-5.66,2.319 -12.15,-0.421 -14.484,-6.116Z" style="fill:#fff;stroke:#fff;stroke-width:4.17px;"/><path d="M700.364,502.895c-2.334,-5.695 0.367,-12.202 6.027,-14.521c5.66,-2.319 12.15,0.421 14.484,6.116c2.334,5.695 -0.367,12.202 -6.027,14.521c-5.66,2.319 -12.15,-0.421 -14.484,-6.116Z" style="fill:#fff;stroke:#fff;stroke-width:4.17px;"/><path d="M1011.673,665.615c-2.334,-5.695 0.367,-12.202 6.027,-14.521c5.66,-2.319 12.15,0.421 14.484,6.116c2.334,5.695 -0.367,12.202 -6.027,14.521c-5.66,2.319 -12.15,-0.421 -14.484,-6.116Z" style="fill:#fff;stroke:#fff;stroke-width:4.17px;"/><path d="M965.355,389.587c-2.334,-5.695 0.367,-12.202 6.027,-14.521c5.66,-2.319 12.15,0.421 14.484,6.116c2.334,5.695 -0.367,12.202 -6.027,14.521c-5.66,2.319 -12.15,-0.421 -14.484,-6.116Z" style="fill:#fff;stroke:#fff;stroke-width:4.17px;"/><path d="M1225.741,281.178c-2.334,-5.695 0.367,-12.202 6.027,-14.521c5.66,-2.319 12.15,0.421 14.484,6.116c2.334,5.695 -0.367,12.202 -6.027,14.521c-5.66,2.319 -12.15,-0.421 -14.484,-6.116Z" style="fill:#fff;stroke:#fff;stroke-width:4.17px;"/><path d="M933.551,876.296l98.988,127.09" style="fill:none;stroke:#fff;stroke-width:4.17px;"/><path d="M580.486,709.87l115.236,259.961" style="fill:none;stroke:#fff;stroke-width:4.17px;"/><path id="Line12" serif:id="Line" d="M776.872,858.69l144.015,13.854" style="fill:none;stroke:#fff;stroke-width:4.17px;"/><path id="Line13" serif:id="Line" d="M877.262,642.707l142.904,22.596" style="fill:none;stroke:#fff;stroke-width:4.17px;"/><path id="Line14" serif:id="Line" d="M717.622,490.074l253.696,-104.52" style="fill:none;stroke:#fff;stroke-width:4.17px;"/><path id="Line15" serif:id="Line" d="M983.611,383.153l253.696,-104.52" style="fill:none;stroke:#fff;stroke-width:4.17px;"/><path d="M576.321,709.388l19.96,-72.965" style="fill:none;stroke:#fff;stroke-width:4.17px;"/><path d="M596.281,636.423l75.522,-4.331" style="fill:none;stroke:#fff;stroke-width:4.17px;"/><path d="M677.932,615.927l30.913,-108.699" style="fill:none;stroke:#fff;stroke-width:4.17px;"/><path d="M717.368,500.652l149.495,134.383" style="fill:none;stroke:#fff;stroke-width:4.17px;"/><path d="M698.313,975.148l83.441,-118.194" style="fill:none;stroke:#fff;stroke-width:4.17px;"/></g><g id="Buruj4" serif:id="Buruj" opacity="0.5"><path d="M2344.07,1787.524c-4.671,5.297 -4.189,13.366 1.075,18.008c5.264,4.642 13.33,4.111 18.001,-1.186c4.671,-5.297 4.189,-13.366 -1.075,-18.008c-5.264,-4.642 -13.33,-4.111 -18.001,1.186Z" style="fill:#fff;stroke:#fff;stroke-width:4.17px;"/><path d="M2181.3,1891.878c-4.671,5.297 -4.189,13.366 1.075,18.008c5.264,4.642 13.33,4.111 18.001,-1.186c4.671,-5.297 4.189,-13.366 -1.075,-18.008c-5.264,-4.642 -13.33,-4.111 -18.001,1.186Z" style="fill:#fff;stroke:#fff;stroke-width:4.17px;"/><path d="M2013.589,1848.466c-4.671,5.297 -4.189,13.366 1.075,18.008c5.264,4.642 13.33,4.111 18.001,-1.186c4.671,-5.297 4.189,-13.366 -1.075,-18.008c-5.264,-4.642 -13.33,-4.111 -18.001,1.186Z" style="fill:#fff;stroke:#fff;stroke-width:4.17px;"/><path d="M1975.278,1698.209c-4.671,5.297 -4.189,13.366 1.075,18.008c5.264,4.642 13.33,4.111 18.001,-1.186c4.671,-5.297 4.189,-13.366 -1.075,-18.008c-5.264,-4.642 -13.33,-4.111 -18.001,1.186Z" style="fill:#fff;stroke:#fff;stroke-width:4.17px;"/><path d="M1736.565,1938.667c-4.671,5.297 -4.189,13.366 1.075,18.008c5.264,4.642 13.33,4.111 18.001,-1.186c4.671,-5.297 4.189,-13.366 -1.075,-18.008c-5.264,-4.642 -13.33,-4.111 -18.001,1.186Z" style="fill:#fff;stroke:#fff;stroke-width:4.17px;"/><path d="M1812.801,2061.103c-4.671,5.297 -4.189,13.366 1.075,18.008c5.264,4.642 13.33,4.111 18.001,-1.186c4.671,-5.297 4.189,-13.366 -1.075,-18.008c-5.264,-4.642 -13.33,-4.111 -18.001,1.186Z" style="fill:#fff;stroke:#fff;stroke-width:4.17px;"/><path d="M1735.194,2021.84c-4.671,5.297 -4.189,13.366 1.075,18.008c5.264,4.642 13.33,4.111 18.001,-1.186c4.671,-5.297 4.189,-13.366 -1.075,-18.008c-5.264,-4.642 -13.33,-4.111 -18.001,1.186Z" style="fill:#fff;stroke:#fff;stroke-width:4.17px;"/><path d="M2033.96,2116.91c-4.671,5.297 -4.189,13.366 1.075,18.008c5.264,4.642 13.33,4.111 18.001,-1.186c4.671,-5.297 4.189,-13.366 -1.075,-18.008c-5.264,-4.642 -13.33,-4.111 -18.001,1.186Z" style="fill:#fff;stroke:#fff;stroke-width:4.17px;"/><path d="M1806.434,2213.836c-4.671,5.297 -4.189,13.366 1.075,18.008c5.264,4.642 13.33,4.111 18.001,-1.186c4.671,-5.297 4.189,-13.366 -1.075,-18.008c-5.264,-4.642 -13.33,-4.111 -18.001,1.186Z" style="fill:#fff;stroke:#fff;stroke-width:4.17px;"/><path d="M2205.095,2154.457c-4.671,5.297 -4.189,13.366 1.075,18.008c5.264,4.642 13.33,4.111 18.001,-1.186c4.671,-5.297 4.189,-13.366 -1.075,-18.008c-5.264,-4.642 -13.33,-4.111 -18.001,1.186Z" style="fill:#fff;stroke:#fff;stroke-width:4.17px;"/><path d="M2051.118,2436.288c-4.671,5.297 -4.189,13.366 1.075,18.008c5.264,4.642 13.33,4.111 18.001,-1.186c4.671,-5.297 4.189,-13.366 -1.075,-18.008c-5.264,-4.642 -13.33,-4.111 -18.001,1.186Z" style="fill:#fff;stroke:#fff;stroke-width:4.17px;"/><path d="M2292.651,2651.698c-4.671,5.297 -4.189,13.366 1.075,18.008c5.264,4.642 13.33,4.111 18.001,-1.186c4.671,-5.297 4.189,-13.366 -1.075,-18.008c-5.264,-4.642 -13.33,-4.111 -18.001,1.186Z" style="fill:#fff;stroke:#fff;stroke-width:4.17px;"/><path d="M2199.601,1896.688l155.088,-100.568" style="fill:none;stroke:#fff;stroke-width:4.17px;"/><path d="M1754.279,1944.388l222.652,-238.506" style="fill:none;stroke:#fff;stroke-width:4.17px;"/><path id="Line16" serif:id="Line" d="M2023.127,1856.877l161.335,39.118" style="fill:none;stroke:#fff;stroke-width:4.17px;"/><path id="Line17" serif:id="Line" d="M2050.768,2128.764l163.418,29.224" style="fill:none;stroke:#fff;stroke-width:4.17px;"/><path id="Line18" serif:id="Line" d="M1820.324,2234.222l235.743,208.679" style="fill:none;stroke:#fff;stroke-width:4.17px;"/><path id="Line19" serif:id="Line" d="M2068.491,2450.126l235.743,208.679" style="fill:none;stroke:#fff;stroke-width:4.17px;"/><path d="M1749.583,1943.345l-5.79,86.605" style="fill:none;stroke:#fff;stroke-width:4.17px;"/><path d="M1743.793,2029.951l80.246,33.085" style="fill:none;stroke:#fff;stroke-width:4.17px;"/><path d="M1824.607,2082.865l-7.349,129.462" style="fill:none;stroke:#fff;stroke-width:4.17px;"/><path d="M1824.025,2222.659l212.585,-89.488" style="fill:none;stroke:#fff;stroke-width:4.17px;"/><path d="M1981.739,1701.093l46.027,159.502" style="fill:none;stroke:#fff;stroke-width:4.17px;"/></g><g id="Buruj5" serif:id="Buruj" opacity="0.5"><path d="M1305.326,324.07c4.064,5.776 12.023,7.187 17.763,3.148c5.74,-4.039 7.102,-12.007 3.038,-17.783c-4.064,-5.776 -12.023,-7.187 -17.763,-3.148c-5.74,4.039 -7.102,12.007 -3.038,17.783Z" style="fill:#fff;stroke:#fff;stroke-width:4.17px;"/><path d="M1368.912,506.665c4.064,5.776 12.023,7.187 17.763,3.148c5.74,-4.039 7.102,-12.007 3.038,-17.783c-4.064,-5.776 -12.023,-7.187 -17.763,-3.148c-5.74,4.039 -7.102,12.007 -3.038,17.783Z" style="fill:#fff;stroke:#fff;stroke-width:4.17px;"/><path d="M1287.643,659.658c4.064,5.776 12.023,7.187 17.763,3.148c5.74,-4.039 7.102,-12.007 3.038,-17.783c-4.064,-5.776 -12.023,-7.187 -17.763,-3.148c-5.74,4.039 -7.102,12.007 -3.038,17.783Z" style="fill:#fff;stroke:#fff;stroke-width:4.17px;"/><path d="M1132.595,661.93c4.064,5.776 12.023,7.187 17.763,3.148c5.74,-4.039 7.102,-12.007 3.038,-17.783c-4.064,-5.776 -12.023,-7.187 -17.763,-3.148c-5.74,4.039 -7.102,12.007 -3.038,17.783Z" style="fill:#fff;stroke:#fff;stroke-width:4.17px;"/><path d="M1310.861,950.07c4.064,5.776 12.023,7.187 17.763,3.148c5.74,-4.039 7.102,-12.007 3.038,-17.783c-4.064,-5.776 -12.023,-7.187 -17.763,-3.148c-5.74,4.039 -7.102,12.007 -3.038,17.783Z" style="fill:#fff;stroke:#fff;stroke-width:4.17px;"/><path d="M1447.682,904.438c4.064,5.776 12.023,7.187 17.763,3.148c5.74,-4.039 7.102,-12.007 3.038,-17.783c-4.064,-5.776 -12.023,-7.187 -17.763,-3.148c-5.74,4.039 -7.102,12.007 -3.038,17.783Z" style="fill:#fff;stroke:#fff;stroke-width:4.17px;"/><path d="M1391.428,970.77c4.064,5.776 12.023,7.187 17.763,3.148c5.74,-4.039 7.102,-12.007 3.038,-17.783c-4.064,-5.776 -12.023,-7.187 -17.763,-3.148c-5.74,4.039 -7.102,12.007 -3.038,17.783Z" style="fill:#fff;stroke:#fff;stroke-width:4.17px;"/><path d="M1553.451,702.353c4.064,5.776 12.023,7.187 17.763,3.148c5.74,-4.039 7.102,-12.007 3.038,-17.783c-4.064,-5.776 -12.023,-7.187 -17.763,-3.148c-5.74,4.039 -7.102,12.007 -3.038,17.783Z" style="fill:#fff;stroke:#fff;stroke-width:4.17px;"/><path d="M1594.735,946.194c4.064,5.776 12.023,7.187 17.763,3.148c5.74,-4.039 7.102,-12.007 3.038,-17.783c-4.064,-5.776 -12.023,-7.187 -17.763,-3.148c-5.74,4.039 -7.102,12.007 -3.038,17.783Z" style="fill:#fff;stroke:#fff;stroke-width:4.17px;"/><path d="M1629.814,544.664c4.064,5.776 12.023,7.187 17.763,3.148c5.74,-4.039 7.102,-12.007 3.038,-17.783c-4.064,-5.776 -12.023,-7.187 -17.763,-3.148c-5.74,4.039 -7.102,12.007 -3.038,17.783Z" style="fill:#fff;stroke:#fff;stroke-width:4.17px;"/><path d="M1868.046,760.032c4.064,5.776 12.023,7.187 17.763,3.148c5.74,-4.039 7.102,-12.007 3.038,-17.783c-4.064,-5.776 -12.023,-7.187 -17.763,-3.148c-5.74,4.039 -7.102,12.007 -3.038,17.783Z" style="fill:#fff;stroke:#fff;stroke-width:4.17px;"/><path d="M2133.775,575.295c4.064,5.776 12.023,7.187 17.763,3.148c5.74,-4.039 7.102,-12.007 3.038,-17.783c-4.064,-5.776 -12.023,-7.187 -17.763,-3.148c-5.74,4.039 -7.102,12.007 -3.038,17.783Z" style="fill:#fff;stroke:#fff;stroke-width:4.17px;"/><path d="M1377.852,489.987l-61.692,-174.242" style="fill:none;stroke:#fff;stroke-width:4.17px;"/><path d="M1320.549,934.175l-180.107,-272.067" style="fill:none;stroke:#fff;stroke-width:4.17px;"/><path id="Line20" serif:id="Line" d="M1298.043,652.341l75.609,-147.792" style="fill:none;stroke:#fff;stroke-width:4.17px;"/><path id="Line21" serif:id="Line" d="M1568.893,688.767l66.471,-152.121" style="fill:none;stroke:#fff;stroke-width:4.17px;"/><path id="Line22" serif:id="Line" d="M1617.794,937.432l257.835,-180.673" style="fill:none;stroke:#fff;stroke-width:4.17px;"/><path id="Line23" serif:id="Line" d="M1885.548,746.359l257.835,-180.673" style="fill:none;stroke:#fff;stroke-width:4.17px;"/><path d="M1318.441,938.5l82.877,25.796" style="fill:none;stroke:#fff;stroke-width:4.17px;"/><path d="M1401.318,964.296l50.86,-70.336" style="fill:none;stroke:#fff;stroke-width:4.17px;"/><path d="M1471.595,898.025l124.192,37.292" style="fill:none;stroke:#fff;stroke-width:4.17px;"/><path d="M1607.412,931.14l-37.529,-227.579" style="fill:none;stroke:#fff;stroke-width:4.17px;"/><path d="M1136.904,656.318l165.835,-7.623" style="fill:none;stroke:#fff;stroke-width:4.17px;"/></g></g></g><circle cx="1240.157" cy="1753.937" r="1037.23" style="fill:none;stroke:#000e86;stroke-width:4.17px;"/><path id="hair-up" serif:id="hair up" d="M699.724,1085.126c121.446,-101.421 210.645,-76.306 195.635,50.701c-2.349,19.871 14.191,37.053 18.79,28.12l0,3.525c150.483,-199.366 -92.214,-240.279 -214.425,-82.346Z" style="fill:#719bd5;stroke:#000e86;stroke-width:4.17px;"/><path id="body" d="M831.181,1323.004c-56.905,117.312 -29.019,205.173 8.505,261.252c0,0 67.893,47.445 28.992,100.322c-38.901,52.876 -96.718,71.24 -96.718,71.24l142.156,254.515c22.548,51.882 64.275,48.986 94.209,33.716l109,-51.342c10.921,-4.239 17.836,-1.727 21.577,6.134l11.91,18.049c45.174,87.055 79.735,183.682 89.345,277.283l-154.915,165.215c-94.889,102.299 -147.463,157.66 -203.384,264.29c297.184,107.628 605.579,83.676 880.847,-73.359c6.689,-182.553 -111.125,-331.904 -170.544,-421.24c-71.338,-110.227 -100.298,-211.205 -131.876,-343.777c63.795,-29.215 150.028,-115.308 179.601,-166.179c56.611,-89.25 76.268,-195.703 55.344,-321.046c-32.298,-193.476 -183.771,-346.655 -455.072,-337.288c0,0 -311.73,61.736 -408.976,262.215Z" style="fill:#c4d9f6;stroke:#003094;stroke-width:4.17px;"/><path id="back-hair" serif:id="back hair" d="M905.259,1158.485c182.357,253.821 307.093,551.558 462.637,730.979c57.813,137.052 300.794,146.262 265.792,12.272c123.921,-52.026 175.249,-176.716 122.185,-255.396c43.359,-48.754 44.292,-102.836 20.988,-166.027c143.999,-559.194 -759.16,-587.926 -871.601,-321.828Z" style="fill:#719bd5;stroke:#000e86;stroke-width:4.17px;"/><path id="long-side-hair" serif:id="long side hair" d="M1150.534,1327.479c0,0 28.632,54.414 72.276,157.126c0,0 14.644,142.776 11.517,176.201c-11.389,121.713 -68.106,253.932 -105.676,309.152c-49.143,72.23 -90.409,125.821 -118.224,153.007c-27.477,26.855 -96.438,56.678 -105.167,11.129c-0.124,28.042 23.117,61.09 92.801,30.932c-34.53,136.643 46.373,194.186 112.493,172.343c-77.672,2.172 -93.115,-89.047 -52.537,-167.29c-15.18,56.791 19.871,93.221 69.18,82.869c-35.113,-8.471 -54.359,-36.877 -46.29,-68.529c11.427,-44.828 59.751,-107.879 101.36,-151.102c53.137,-55.198 157.511,-159.915 215.705,-258.007c39.878,-67.218 44.825,-135.528 35.251,-145.363c-21.054,-133.286 -153.897,-367.335 -153.897,-367.335" style="fill:#719bd5;stroke:#000e86;stroke-width:4.63px;"/><path id="hair-up1" serif:id="hair up" d="M1359.19,1897.226c-24.277,13.329 36.742,64.962 124.313,148.229c64.333,61.17 130.045,38.303 136.002,-3.126c23.903,-21.988 52.519,-19.227 68.31,-0.718c-7.053,-12.932 -26.835,-45.886 -66.133,-18.617c2.514,-13.433 -2.019,-31.828 -5.72,-46.796c-19.558,13.135 -32.308,16.048 -32.308,16.048c0,0 13.637,47.573 -12.131,40.938c-74.864,-19.279 -89.708,-172.578 -62.282,-258.081" style="fill:#719bd5;stroke:#000e86;stroke-width:4.17px;"/><path id="hair-up2" serif:id="hair up" d="M1332.302,1874.981c-25.59,61.835 16.767,206.924 188.518,256.981c48.037,14 107.456,22.586 107.456,22.586c9.894,5.091 32.318,32.422 0.912,56.101c31.099,-4.484 31.516,-40.949 22.2,-57.445c39.509,3.338 90.583,31.487 13.217,109.814c178.051,-137.478 1.842,-137.349 -108.493,-192.897c-86.216,-43.406 -131.341,-141.94 -128.636,-213.133" style="fill:#719bd5;stroke:#000e86;stroke-width:4.17px;"/><path id="bangs" d="M712.043,1357.957c-49.831,83.139 -89.912,93.424 -136.121,93.225c22.106,18.867 78.368,10.932 112.61,-3.354c-60.158,100.677 -4.328,158.519 83.429,173.916c-35.412,-23.65 -53.274,-86.447 -33.098,-130.47c-2.723,35.432 24.576,77.206 60.269,82.22c34.769,43.71 68.428,54.071 123.473,39.75c-65.83,-5.897 -92.996,-54.121 -101.528,-121.132c13.572,51.788 119.74,122.889 231.736,68.521c12.618,29.55 71.649,48.661 97.921,38.379c21.253,47.256 26.094,180.052 -32.852,222.345c73.738,-28.59 84.441,-76.47 88.11,-99.509c0.973,23.782 -4.978,46.578 -17.893,71.356c56.299,-34.6 76.077,-184.973 69.796,-261.543c-7.647,-93.213 -126.172,-415.465 -344.177,-373.704c-69.055,-157.559 -207.913,298.462 -316.373,161.651c31.315,47.57 61.607,65.557 114.698,38.349Z" style="fill:#719bd5;stroke:#000e86;stroke-width:4.17px;"/><path id="clothes" d="M1161.306,2365.777c121.226,31.922 287.943,53.664 452.381,-120.054c101.55,113.438 164.048,262.758 151.036,403.623c-305.268,165.794 -608.218,176.828 -882.864,75.344c0.855,-58.983 175.842,-274.41 279.447,-358.913Z" style="fill:#a5caff;stroke:#000e86;stroke-width:4.17px;"/><path d="M1153.941,2786.695c106.213,-252.692 245.325,-383.126 350.733,-356.909c38.293,9.524 133.267,61.736 186.946,257.79l-31.531,14.614c-99.068,-389.267 -320.235,-311.049 -445.807,87.697c-21.51,0.113 -41.622,-0.953 -60.34,-3.192Z" style="fill:#4a5f9d;stroke:#000e86;stroke-width:4.17px;"/><path d="M920.882,2625.577c58.52,29.175 117.664,31.564 154.343,-25.736c96.923,36.156 103.793,39.077 171.638,95.512c-14.351,32.5 -20.787,64.125 -28.989,94.249c-88.518,7.061 -230.569,-26.393 -353.31,-67.817c6.034,-32.381 23.457,-60.094 56.318,-96.209Z" style="fill:#4a5f9d;stroke:#000e86;stroke-width:4.17px;"/><path id="braids" d="M999.526,1127.923c18.842,-0.242 23.918,-7.1 44.854,8.013c61.919,44.7 169.221,142.502 169.252,142.502c-6.645,21.797 26.656,108.271 74.954,122.082c0,0 -1.71,110.429 76.402,166.42c-44.812,49.756 -26.093,84.786 3.096,127.412c-54.794,39.634 -77.635,92.974 -56.876,140.668c-46.002,23.678 -69.562,72.666 -47.026,142.666c-40.383,22.182 -74.319,76.036 -50.493,128.863c-65.239,20.185 -32.557,94.407 -21.007,111.053c-55.415,10.086 -60.575,71.585 -25.943,106.924c-42.683,73.806 50.047,120.87 46.95,110.949c-24.513,52.112 65.068,102.027 63.9,94.279c-25.543,49.367 53.742,100.356 63.031,91.046c-17.688,39.688 -5.86,81.851 21.042,84.327c-25.803,49.497 -0.077,71.166 1.816,79.06c36.955,-2.528 74.105,-14.143 74.105,-14.143c9.404,1.799 12.924,-48.904 -19.774,-74.311c21.837,-52.619 -12.968,-83.044 -37.129,-89.513c11.457,-25.464 -6.465,-78.708 -58.333,-85.214c31.997,-35.374 -27.996,-96.986 -53.21,-95.186c29.617,-56.361 -22.832,-83.573 -41.959,-88.789c28.767,-20.802 24.763,-67.041 12.027,-91.444c58.894,-49.295 31.568,-104.601 17.444,-124.946c59.125,-24.68 93.53,-91.892 54.37,-121.513c50.743,-26.765 88.861,-98.729 71.018,-146.924c47.375,-34.542 64.455,-84.184 51.708,-143.42c38.93,-45.062 59.178,-99.438 5.509,-156.141c24.186,-55.209 -1.631,-119.327 -72.021,-173.241c19.096,-63.022 -4.534,-130.478 -92.219,-176.119c-88.452,-129.413 -273.226,-242.106 -364.614,-55.72" style="fill:#719bd5;stroke:#000e86;stroke-width:4.17px;"/><path d="M1010.349,1097.345c-37.899,11.67 -42.511,35.612 -42.511,35.612c87.505,38.418 180.211,106.91 243.297,165.54c0.81,-8.559 -0.826,-15.118 6.157,-22.063c3.193,-3.175 10.745,-4.812 20.615,0.01l-220.741,-177.654" style="fill:#719bd5;"/><g id="Braids-texture" serif:id="Braids texture"><path d="M1403.623,2735.709c-1.923,1.523 -9.642,13.415 -6.978,16.711" style="fill:none;stroke:#000e86;stroke-width:4.17px;"/><path d="M1386.859,2738.019c2.259,-0.136 10.445,18.153 11.189,19.815c2.772,6.194 3.692,12.5 2.607,7.616" style="fill:none;stroke:#000e86;stroke-width:4.17px;"/><path d="M1385.813,2645.17c1.555,-5.287 -5.727,15.703 -2.373,12.452" style="fill:none;stroke:#000e86;stroke-width:4.17px;"/><path d="M1366.125,2647.931c11.57,4.733 30.164,28.127 26.71,29.163" style="fill:none;stroke:#000e86;stroke-width:4.17px;"/><path d="M1332.357,2557.519c-1.164,-2.514 -3.05,14.741 0.201,13.39" style="fill:none;stroke:#000e86;stroke-width:4.17px;"/><path d="M1313.629,2565.964c15.56,2.31 41.135,15.968 35.412,18.407" style="fill:none;stroke:#000e86;stroke-width:4.17px;"/><path d="M1277.735,2461.367c-1.505,0.985 -1.814,8.553 -1.845,9.312c-0.215,5.252 1.529,8.023 1.604,8.193" style="fill:none;stroke:#000e86;stroke-width:4.17px;"/><path d="M1258.084,2470.282c9.003,-3.336 30,18.279 32.124,20.465" style="fill:none;stroke:#000e86;stroke-width:4.17px;"/><path d="M1220.907,2386.655c-1.874,-4.578 5.497,-15.166 6.296,-16.314" style="fill:none;stroke:#000e86;stroke-width:4.17px;"/><path d="M1200.494,2377.885c26.861,3.416 37.86,30.697 33.728,25.915" style="fill:none;stroke:#000e86;stroke-width:4.17px;"/><path d="M1199.853,2285.234c-2.633,-5.332 27.612,-18.668 13.716,-10.575" style="fill:none;stroke:#000e86;stroke-width:4.17px;"/><path d="M1191.992,2266.105c8.632,12.054 7.951,33.425 7.857,36.403l1.006,-1.898" style="fill:none;stroke:#000e86;stroke-width:4.17px;"/><path d="M1227.725,2179.049c4.491,-6.449 3.662,-7.213 13.234,-14.365" style="fill:none;stroke:#000e86;stroke-width:4.17px;"/><path d="M1370.015,1781.594c22.08,-18.248 25.638,-18.04 24.343,-16.097" style="fill:none;stroke:#000e86;stroke-width:4.17px;"/><path d="M1316.917,1888.357c0.706,7.436 7.458,18.736 -0.911,53.018l1.312,-2.488" style="fill:none;stroke:#000e86;stroke-width:4.17px;"/><path d="M1321.489,1912.251c1.161,-6.01 18.371,-12.299 20.172,-12.957c0.39,-0.142 -1.472,0.756 -1.083,0.614" style="fill:none;stroke:#000e86;stroke-width:4.17px;"/><path d="M1256.6,2034.028c2.734,0.615 2.469,25.644 -1.043,37.897c-0.585,2.04 -1.473,3.984 -2.045,6.028c-0.147,0.524 0.909,-1.968 0.762,-1.444" style="fill:none;stroke:#000e86;stroke-width:4.17px;"/><path d="M1259.087,2055.864c6.28,-6.991 19.736,-11.371 21.616,-11.983c0.668,-0.217 1.269,-0.851 1.965,-0.758c0.417,0.056 -1.299,0.847 -0.882,0.902" style="fill:none;stroke:#000e86;stroke-width:4.17px;"/><path d="M1221.549,2158.332c7.456,16.471 7.825,53.615 5.775,38.114" style="fill:none;stroke:#000e86;stroke-width:4.17px;"/><path d="M1262.213,1291.857c20.558,1.957 50.129,32.004 47.624,31.897" style="fill:none;stroke:#000e86;stroke-width:4.17px;"/><path d="M1289.623,1278.438c-3.248,9.336 -2.133,14.971 -1.106,25.882l-0.498,-2.332" style="fill:none;stroke:#000e86;stroke-width:4.17px;"/><path d="M1352.086,1463.444c2.53,-0 43.177,32.859 46.679,48.514l-1.094,-1.894" style="fill:none;stroke:#000e86;stroke-width:4.17px;"/><path d="M1377.996,1483.792c-3.858,-0.868 2.034,-30.342 2.406,-25.987" style="fill:none;stroke:#000e86;stroke-width:4.17px;"/><path d="M1399.973,1615.64c0.141,-0.762 16.735,28.567 12.713,48.112l0.08,-2.166" style="fill:none;stroke:#000e86;stroke-width:4.17px;"/><path d="M1411.403,1638.378c-0.618,-6.117 19.611,-29.181 16.202,-22.125" style="fill:none;stroke:#000e86;stroke-width:4.17px;"/><path d="M1369.454,1751.89c1.299,0.234 0.806,18.428 0.762,20.032c-0.625,23.004 -3.626,29.591 -5.549,36.583l0.856,-2.836" style="fill:none;stroke:#000e86;stroke-width:4.17px;"/></g></svg>